<svg width="39" height="39" viewBox="0 0 39 39" fill="none" xmlns="http://www.w3.org/2000/svg">
<path d="M37.6536 1.8267C38.8903 3.06336 38.8903 5.06838 37.6536 6.30504L24.2186 19.7401L37.6536 33.1751C38.8903 34.4118 38.8903 36.4168 37.6536 37.6535C36.4169 38.8901 34.4119 38.8901 33.1752 37.6535L19.7402 24.2184L6.3052 37.6534C5.06854 38.8901 3.06352 38.8901 1.82686 37.6534C0.590198 36.4168 0.590197 34.4118 1.82686 33.1751L15.2619 19.7401L1.82685 6.30506C0.590192 5.06839 0.590192 3.06337 1.82685 1.82671C3.06351 0.590051 5.06854 0.590052 6.3052 1.82671L19.7402 15.2617L33.1753 1.8267C34.4119 0.590041 36.4169 0.590041 37.6536 1.8267Z" fill="#5BACD8"/>
</svg>
