<svg width="120" height="40" viewBox="0 0 120 40" fill="none" xmlns="http://www.w3.org/2000/svg">
<path d="M35.4727 13.793L25.5547 12.3516L21.1211 3.3633C21 3.1172 20.8008 2.91798 20.5547 2.79689C19.9375 2.4922 19.1875 2.74611 18.8789 3.3633L14.4453 12.3516L4.52736 13.793C4.25392 13.8321 4.00392 13.961 3.81251 14.1563C3.58111 14.3941 3.4536 14.7141 3.458 15.0459C3.46239 15.3777 3.59833 15.6942 3.83595 15.9258L11.0117 22.9219L9.31642 32.8008C9.27667 33.0306 9.3021 33.267 9.38983 33.4831C9.47756 33.6991 9.62409 33.8863 9.81279 34.0234C10.0015 34.1604 10.2248 34.2419 10.4574 34.2585C10.6901 34.275 10.9227 34.2261 11.1289 34.1172L20 29.4532L28.8711 34.1172C29.1133 34.2461 29.3946 34.2891 29.6641 34.2422C30.3438 34.125 30.8008 33.4805 30.6836 32.8008L28.9883 22.9219L36.1641 15.9258C36.3594 15.7344 36.4883 15.4844 36.5274 15.211C36.6329 14.5274 36.1563 13.8946 35.4727 13.793Z" fill="#0F314A"/>
<path d="M75.4727 13.793L65.5547 12.3516L61.1211 3.3633C61 3.1172 60.8008 2.91798 60.5547 2.79689C59.9375 2.4922 59.1875 2.74611 58.8789 3.3633L54.4453 12.3516L44.5274 13.793C44.2539 13.8321 44.0039 13.961 43.8125 14.1563C43.5811 14.3941 43.4536 14.7141 43.458 15.0459C43.4624 15.3777 43.5983 15.6942 43.8359 15.9258L51.0117 22.9219L49.3164 32.8008C49.2767 33.0306 49.3021 33.267 49.3898 33.4831C49.4776 33.6991 49.6241 33.8863 49.8128 34.0234C50.0015 34.1604 50.2248 34.2419 50.4574 34.2585C50.6901 34.275 50.9227 34.2261 51.1289 34.1172L60 29.4532L68.8711 34.1172C69.1133 34.2461 69.3946 34.2891 69.6641 34.2422C70.3438 34.125 70.8008 33.4805 70.6836 32.8008L68.9883 22.9219L76.1641 15.9258C76.3594 15.7344 76.4883 15.4844 76.5274 15.211C76.6329 14.5274 76.1563 13.8946 75.4727 13.793Z" fill="#0F314A"/>
<path d="M115.473 13.793L105.555 12.3516L101.121 3.3633C101 3.1172 100.801 2.91798 100.555 2.79689C99.9375 2.4922 99.1875 2.74611 98.8789 3.3633L94.4453 12.3516L84.5274 13.793C84.2539 13.8321 84.0039 13.961 83.8125 14.1563C83.5811 14.3941 83.4536 14.7141 83.458 15.0459C83.4624 15.3777 83.5983 15.6942 83.8359 15.9258L91.0117 22.9219L89.3164 32.8008C89.2767 33.0306 89.3021 33.267 89.3898 33.4831C89.4776 33.6991 89.6241 33.8863 89.8128 34.0234C90.0015 34.1604 90.2248 34.2419 90.4574 34.2585C90.6901 34.275 90.9227 34.2261 91.1289 34.1172L100 29.4532L108.871 34.1172C109.113 34.2461 109.395 34.2891 109.664 34.2422C110.344 34.125 110.801 33.4805 110.684 32.8008L108.988 22.9219L116.164 15.9258C116.359 15.7344 116.488 15.4844 116.527 15.211C116.633 14.5274 116.156 13.8946 115.473 13.793Z" fill="#0F314A"/>
</svg>
