<svg width="40" height="40" viewBox="0 0 40 40" fill="none" xmlns="http://www.w3.org/2000/svg">
<path d="M20 0.625C8.95161 0.625 0 9.29688 0 20C0 30.7031 8.95161 39.375 20 39.375C31.0484 39.375 40 30.7031 40 20C40 9.29688 31.0484 0.625 20 0.625ZM9.03226 17.4531C9.29839 14.1641 11.629 11.875 13.5484 11.875C15.4677 11.875 17.7984 14.1641 18.0645 17.4531C18.121 18.125 17.1935 18.3828 16.8629 17.8047L16.0968 16.4766C15.4758 15.4062 14.5484 14.7891 13.5565 14.7891C12.5645 14.7891 11.6371 15.4062 11.0161 16.4766L10.25 17.8047C9.90322 18.3828 8.97581 18.1172 9.03226 17.4531ZM29.2581 27.0469C26.9597 29.7188 23.5887 31.25 20 31.25C16.4113 31.25 13.0403 29.7188 10.7419 27.0469C9.65322 25.7734 11.629 24.1797 12.7258 25.4453C14.5323 27.5469 17.1774 28.7422 20 28.7422C22.8226 28.7422 25.4677 27.5391 27.2742 25.4453C28.371 24.1797 30.3468 25.7812 29.2581 27.0469ZM29.7581 17.8047L28.9919 16.4766C28.371 15.4062 27.4435 14.7891 26.4516 14.7891C25.4597 14.7891 24.5323 15.4062 23.9113 16.4766L23.1452 17.8047C22.8145 18.375 21.8871 18.1172 21.9435 17.4531C22.2097 14.1641 24.5403 11.875 26.4597 11.875C28.379 11.875 30.7097 14.1641 30.9758 17.4531C31.0242 18.125 30.0887 18.3828 29.7581 17.8047Z" fill="#0F314A"/>
</svg>
