<svg width="40" height="40" viewBox="0 0 40 40" fill="none" xmlns="http://www.w3.org/2000/svg">
<path d="M20.0001 31.3733L26.9834 36.6666L38.3334 21.6666M13.3334 18.3333C15.5436 18.3333 17.6632 17.4553 19.226 15.8925C20.7888 14.3297 21.6667 12.2101 21.6667 9.99996C21.6667 7.78982 20.7888 5.67021 19.226 4.1074C17.6632 2.5446 15.5436 1.66663 13.3334 1.66663C11.1233 1.66663 9.00366 2.5446 7.44086 4.1074C5.87805 5.67021 5.00008 7.78982 5.00008 9.99996C5.00008 12.2101 5.87805 14.3297 7.44086 15.8925C9.00366 17.4553 11.1233 18.3333 13.3334 18.3333V18.3333ZM24.4051 26.16C23.8663 24.484 22.9415 22.9581 21.7051 21.705C19.6201 19.6 16.6884 18.3333 13.3334 18.3333C6.66675 18.3333 1.66675 23.3333 1.66675 30V38.3333H18.3334L24.4051 26.16Z" stroke="#0F314A" stroke-width="2"/>
</svg>
