<svg width="25" height="25" viewBox="0 0 25 25" fill="none" xmlns="http://www.w3.org/2000/svg">
<path d="M19.625 14.875V13.2917H17.1946C17.155 12.9829 17.0996 12.6821 17.0204 12.3892L19.0629 11.2096L18.2713 9.84L16.395 10.9167C16.1733 10.5367 15.9042 10.1962 15.6113 9.89541C15.6429 9.71333 15.6667 9.53125 15.6667 9.33333C15.6667 8.7 15.4767 8.10625 15.1521 7.6075L16.4583 6.30125L15.3421 5.185L13.9804 6.54666C12.6504 5.84208 11.5263 6.28541 11.0275 6.54666L9.65792 5.185L8.54167 6.30125L9.84792 7.6075C9.51256 8.12065 9.33376 8.72031 9.33333 9.33333C9.33333 9.53125 9.35708 9.71333 9.38875 9.90333C9.09583 10.2042 8.82667 10.5446 8.605 10.9167L6.72875 9.83208L5.93708 11.2017L7.97958 12.3812C7.90042 12.6742 7.845 12.975 7.80542 13.2837H5.375V14.8671H7.80542C7.845 15.1758 7.90042 15.4767 7.97958 15.7696L5.93708 16.9492L6.72875 18.3187L8.605 17.25C9.46 18.6829 10.885 19.625 12.5 19.625C14.115 19.625 15.54 18.6829 16.395 17.25L18.2713 18.3346L19.0629 16.965L17.0204 15.7854C17.0996 15.4925 17.155 15.1917 17.1946 14.8829H19.625V14.875ZM13.2917 16.4583H11.7083V11.7083H13.2917V16.4583Z" fill="#0F314A"/>
<path d="M12.5 1.5625C6.45996 1.5625 1.5625 6.45996 1.5625 12.5C1.5625 18.54 6.45996 23.4375 12.5 23.4375C18.54 23.4375 23.4375 18.54 23.4375 12.5C23.4375 6.45996 18.54 1.5625 12.5 1.5625ZM12.5 21.582C7.48535 21.582 3.41797 17.5146 3.41797 12.5C3.41797 10.3271 4.18213 8.33008 5.45654 6.76758L18.2324 19.5435C16.6699 20.8179 14.6729 21.582 12.5 21.582ZM19.5435 18.2324L6.76758 5.45654C8.33008 4.18213 10.3271 3.41797 12.5 3.41797C17.5146 3.41797 21.582 7.48535 21.582 12.5C21.582 14.6729 20.8179 16.6699 19.5435 18.2324Z" fill="#0F314A"/>
</svg>
