<svg width="25" height="25" viewBox="0 0 25 25" fill="none" xmlns="http://www.w3.org/2000/svg">
<path d="M23.1079 12.3291L13.6743 2.90039L13.042 2.26807C12.8979 2.12494 12.7031 2.04462 12.5 2.04462C12.2969 2.04462 12.1021 2.12494 11.958 2.26807L1.89207 12.3291C1.74444 12.4761 1.62777 12.6513 1.54893 12.8442C1.4701 13.0371 1.43071 13.2438 1.43308 13.4521C1.44285 14.3115 2.15818 14.9975 3.01756 14.9975H4.05515V22.9492H20.9448V14.9975H22.0044C22.4218 14.9975 22.8149 14.834 23.1103 14.5386C23.2558 14.3936 23.371 14.2212 23.4494 14.0313C23.5278 13.8415 23.5677 13.638 23.5669 13.4326C23.5669 13.0176 23.4033 12.6245 23.1079 12.3291ZM13.8672 21.1914H11.1328V16.2109H13.8672V21.1914ZM19.187 13.2397V21.1914H15.4297V15.625C15.4297 15.0854 14.9927 14.6484 14.4531 14.6484H10.5469C10.0073 14.6484 9.57029 15.0854 9.57029 15.625V21.1914H5.81297V13.2397H3.46922L12.5024 4.21387L13.0664 4.77783L21.5332 13.2397H19.187Z" fill="#0F314A"/>
</svg>
