<svg width="25" height="25" viewBox="0 0 25 25" fill="none" xmlns="http://www.w3.org/2000/svg">
<path d="M24.0477 10.1207C23.8766 9.81326 23.6168 9.62459 23.4105 9.5156C23.4422 9.12732 23.434 8.49568 23.1094 8.11013C22.8418 7.79216 22.4266 7.70154 21.9312 7.8738C21.8109 7.37849 21.532 6.72966 20.8887 6.72966C20.6105 6.72966 20.3219 6.86208 20.0156 7.13201C19.8027 6.89724 19.484 6.65154 19.0809 6.65154C18.6648 6.65154 18.2883 6.90701 17.9621 7.4113C17.0816 8.77185 16.5824 10.4207 16.4336 12.3703C16.0335 12.0605 15.6514 11.7282 15.2891 11.375C15.0406 11.132 14.7696 10.9133 14.4797 10.7218C14.3846 10.5594 14.291 10.3961 14.1988 10.232C13.4383 8.88005 12.6535 7.48552 10.6496 6.8281C11.4461 6.36208 12.3461 6.15115 12.3574 6.1488L13.8297 5.8113L12.3746 5.40623C12.3383 5.39607 11.5109 5.16912 10.3867 5.14451C10.6581 4.95625 10.9425 4.7876 11.2379 4.63982L12.5891 3.99607L11.0934 3.9113C11.0934 3.9113 11.0109 3.90662 10.8633 3.90662C9.71875 3.90662 5.91758 4.16326 4.61797 7.43552C4.01523 7.88044 3.52227 8.46951 3.14258 9.16013C2.56289 9.16052 1.64023 9.28669 0.78125 9.95076L2.50898 10.8222C2.48516 10.9195 2.45625 11.0136 2.43594 11.1133L0.78125 11.5527C1.24648 11.9187 1.85664 12.1363 2.29609 12.2558C2.28477 12.4422 2.27031 12.6258 2.27031 12.8168C2.27031 17.4586 4.51562 20.2929 8.79648 21.1504V23.7765C8.66836 23.7988 7.9707 23.7383 7.68594 23.7383C6.97773 23.7383 6.40313 24.2187 6.40313 24.2187H9.60586V21.2906C10.3399 21.3866 11.0796 21.4334 11.8199 21.4308C11.9508 21.4308 12.0781 21.4254 12.2066 21.4219V23.7761C12.0789 23.7984 11.3805 23.7379 11.0961 23.7379C10.3879 23.7379 9.81367 24.2183 9.81367 24.2183H13.016V21.3703C18.6043 20.8074 21.5238 16.4019 21.5238 14.8105C21.5238 14.5754 21.4676 14.3801 21.3586 14.2308C21.3035 14.1562 21.2338 14.0935 21.1538 14.0466C21.0737 13.9997 20.985 13.9695 20.893 13.9578C21.2613 13.7074 21.6414 13.4832 22.0086 13.2711C23.0066 12.6957 23.8691 12.1984 24.1289 11.3508C24.2719 10.8886 24.2434 10.475 24.0477 10.1207ZM19.1531 14.7988C18.4797 15.4922 16.9289 16.807 14.8391 16.807C13.9617 16.807 13.0656 16.575 12.1766 16.1187C10.6617 15.3414 9.95234 14.0742 10.2785 12.7289C10.548 11.6195 11.4687 10.8445 12.5176 10.8445C13.257 10.8445 14.0293 11.2172 14.752 11.923C16.5531 13.6816 18.2801 14.4789 19.1531 14.7988ZM20.248 16.1949C19.0414 18.2562 16.1109 20.664 11.8199 20.664C5.99297 20.664 3.03867 18.0234 3.03867 12.8164C3.03867 10.6949 3.81133 8.9363 5.15781 7.99294L5.25508 7.92419L5.29688 7.81248C6.08945 5.68201 8.14805 4.98865 9.60078 4.76951C9.39453 4.93083 9.18555 5.11287 8.99297 5.31404L8.25156 6.08669L9.3168 5.95974C9.78222 5.90733 10.2514 5.89609 10.7188 5.92615C10.3043 6.12419 9.86953 6.38357 9.51211 6.71287L8.97148 7.2113L9.69102 7.36834C9.80508 7.39334 9.91875 7.41833 10.0352 7.44763C11.8266 7.9031 12.5953 8.98123 13.2855 10.1785C13.0349 10.1133 12.777 10.0796 12.518 10.0781C11.1133 10.0781 9.88555 11.0941 9.53164 12.5488C9.21094 13.8703 9.64492 15.6808 11.825 16.8008C12.8246 17.3136 13.8383 17.5738 14.8395 17.5738C18.0547 17.5738 20.0551 14.9523 20.1379 14.841L20.2418 14.7023C20.4062 14.7086 20.5742 14.7121 20.7488 14.7129C20.782 14.8629 20.727 15.3761 20.248 16.1949ZM23.3949 11.1265C23.2234 11.6859 22.482 12.1129 21.6242 12.6078C21.0082 12.9633 20.3246 13.3715 19.7063 13.9023C19.3703 13.8764 19.0359 13.8336 18.7043 13.7742C18.171 13.5225 17.6576 13.2308 17.1684 12.9015C17.2586 10.8715 17.7301 9.18669 18.6082 7.82693C18.7766 7.56716 18.9484 7.41833 19.0816 7.41833C19.2937 7.41833 19.5496 7.75349 19.6332 7.90544L19.8969 8.39333L20.2617 7.97537C20.6594 7.51951 20.8543 7.49646 20.8895 7.49646C21.0301 7.49646 21.2164 7.99451 21.252 8.46521L21.2973 9.08083L21.8297 8.76755C22.1461 8.58162 22.3227 8.55388 22.3996 8.55388C22.4738 8.55388 22.4992 8.57693 22.5211 8.60232C22.6812 8.79177 22.6723 9.36365 22.6148 9.68943L22.5594 10.0301L22.891 10.125C22.8945 10.1258 23.2305 10.225 23.3777 10.4961C23.4668 10.6609 23.473 10.873 23.3949 11.1265Z" fill="#0F314A"/>
<path d="M5.68396 10.9078C6.2233 10.9078 6.66052 10.4706 6.66052 9.93127C6.66052 9.39193 6.2233 8.95471 5.68396 8.95471C5.14462 8.95471 4.7074 9.39193 4.7074 9.93127C4.7074 10.4706 5.14462 10.9078 5.68396 10.9078Z" fill="#0F314A"/>
</svg>
