<svg width="25" height="25" viewBox="0 0 25 25" fill="none" xmlns="http://www.w3.org/2000/svg">
<path fill-rule="evenodd" clip-rule="evenodd" d="M12.8994 9.2375C13.0953 9.32604 13.313 9.375 13.5416 9.375H15.625V6.25H16.6666V5.20833H14.9265C14.7222 4.63088 14.3527 4.1262 13.8639 3.75702C13.3751 3.38785 12.7886 3.17046 12.1773 3.13188C11.566 3.0933 10.9568 3.23522 10.4255 3.54001C9.89418 3.8448 9.46415 4.29902 9.18886 4.84621C8.91357 5.39339 8.80516 6.00942 8.8771 6.61771C8.94904 7.226 9.19817 7.79974 9.59351 8.26761C9.98885 8.73548 10.513 9.07685 11.1007 9.24929C11.6885 9.42173 12.314 9.41763 12.8994 9.2375ZM11.9791 4.16667C11.2083 4.16667 10.5348 4.58542 10.1744 5.20833H13.7838C13.601 4.89149 13.3379 4.62839 13.0211 4.44552C12.7043 4.26266 12.3449 4.16648 11.9791 4.16667ZM13.5416 8.33333C13.4035 8.33333 13.271 8.27846 13.1733 8.18079C13.0757 8.08311 13.0208 7.95063 13.0208 7.8125V6.25H14.5833V8.33333H13.5416Z" fill="#0F314A"/>
<path d="M5.20833 10.4167C4.6558 10.4167 4.12589 10.6362 3.73519 11.0269C3.34449 11.4176 3.125 11.9475 3.125 12.5V15.625C3.125 16.1775 3.34449 16.7074 3.73519 17.0981C4.12589 17.4888 4.6558 17.7083 5.20833 17.7083H5.23646C5.37031 18.9323 5.97604 19.9375 6.88021 20.651C7.89948 21.4547 9.27708 21.875 10.7604 21.875C13.1312 21.875 15.3229 20.9203 16.0583 18.7464C16.2526 18.7626 16.4476 18.7241 16.621 18.635C16.7945 18.546 16.9395 18.4102 17.0396 18.2428C17.1397 18.0755 17.1909 17.8835 17.1873 17.6886C17.1837 17.4936 17.1255 17.3036 17.0193 17.1401L18.9922 16.0661L18.4943 15.1516L15.9651 16.5281L13.3589 15.5505H13.3578C13.2587 15.5131 13.1733 15.4464 13.1131 15.3592C13.0529 15.272 13.0207 15.1685 13.0208 15.0625V13.5417C13.0208 13.2654 12.9111 13.0004 12.7157 12.8051C12.5204 12.6097 12.2554 12.5 11.9792 12.5C11.7029 12.5 11.4379 12.6097 11.2426 12.8051C11.0472 13.0004 10.9375 13.2654 10.9375 13.5417V16.1458C10.9375 16.3579 11.0022 16.565 11.123 16.7393C11.2438 16.9136 11.4149 17.0469 11.6135 17.1214L15.0698 18.4172C14.5297 19.9937 12.9016 20.8333 10.7604 20.8333C9.4651 20.8333 8.3276 20.4651 7.52604 19.8328C6.84219 19.2937 6.38854 18.5536 6.27708 17.6359C6.71813 17.5155 7.10735 17.2535 7.3848 16.8901C7.66225 16.5267 7.81253 16.0822 7.8125 15.625V12.5C7.8125 11.9475 7.59301 11.4176 7.20231 11.0269C6.8116 10.6362 6.2817 10.4167 5.72917 10.4167H6.51042C6.64855 10.4167 6.78103 10.3618 6.8787 10.2641C6.97638 10.1664 7.03125 10.034 7.03125 9.89583C7.03125 9.7577 6.97638 9.62522 6.8787 9.52755C6.78103 9.42987 6.64855 9.375 6.51042 9.375H4.42708C4.28895 9.375 4.15647 9.42987 4.0588 9.52755C3.96112 9.62522 3.90625 9.7577 3.90625 9.89583C3.90625 10.034 3.96112 10.1664 4.0588 10.2641C4.15647 10.3618 4.28895 10.4167 4.42708 10.4167H5.20833Z" fill="#0F314A"/>
<path d="M21.7959 13.2969L20.9125 12.7448L19.1125 15.625H21.875V14.5834H20.9917L21.7959 13.2969Z" fill="#0F314A"/>
<path d="M9.37504 10.4167C9.09877 10.4167 8.83382 10.5264 8.63847 10.7218C8.44312 10.9171 8.33337 11.1821 8.33337 11.4584V16.4063C8.33339 16.9359 8.48026 17.4552 8.75766 17.9064C9.03506 18.3576 9.43213 18.7231 9.90475 18.9622C10.3774 19.2014 10.907 19.3047 11.4349 19.2609C11.9627 19.2171 12.4681 19.0278 12.8948 18.7141L11.248 18.0964C10.8508 17.9475 10.5086 17.681 10.267 17.3325C10.0254 16.9839 9.89593 16.5699 9.89587 16.1459V13.5417C9.89587 12.9892 10.1154 12.4592 10.5061 12.0685C10.8968 11.6778 11.4267 11.4584 11.9792 11.4584C12.5317 11.4584 13.0616 11.6778 13.4523 12.0685C13.843 12.4592 14.0625 12.9892 14.0625 13.5417V11.9792C14.0625 11.5648 13.8979 11.1674 13.6049 10.8743C13.3119 10.5813 12.9144 10.4167 12.5 10.4167H9.37504Z" fill="#0F314A"/>
</svg>
